# Blender 4.0.1
# www.blender.org
mtllib allegro.mtl
usemtl shiny_dark_grey
o link_13.0
v 0.007813 -0.001720 -0.000167
v 0.008000 0.000000 0.000333
v 0.008000 -0.000000 -0.000167
v 0.007813 0.001720 0.000333
v 0.007813 0.001720 -0.000167
v 0.007261 0.003359 0.000333
v 0.007261 0.003359 -0.000167
v 0.006369 0.004841 0.000333
v 0.006369 0.004841 -0.000167
v 0.005179 0.006097 0.000333
v 0.005179 0.006097 -0.000167
v 0.003747 0.007068 0.000333
v 0.003747 0.007068 -0.000167
v 0.002140 0.007708 0.000333
v 0.002140 0.007708 -0.000167
v 0.000433 0.007988 0.000333
v 0.000433 0.007988 -0.000167
v -0.001294 0.007895 0.000333
v -0.001294 0.007895 -0.000167
v -0.002961 0.007432 0.000333
v -0.002961 0.007432 -0.000167
v -0.004489 0.006622 0.000333
v -0.004489 0.006622 -0.000167
v -0.005808 0.005502 0.000333
v -0.005808 0.005502 -0.000167
v -0.006855 0.004124 0.000333
v -0.006855 0.004124 -0.000167
v -0.007581 0.002554 0.000333
v -0.007581 0.002554 -0.000167
v -0.007953 0.000865 0.000333
v -0.007953 0.000865 -0.000167
v -0.007953 -0.000865 0.000333
v -0.007953 -0.000865 -0.000167
v -0.007581 -0.002554 0.000333
v -0.007581 -0.002554 -0.000167
v -0.006855 -0.004124 0.000333
v -0.006855 -0.004124 -0.000167
v -0.005808 -0.005502 0.000333
v -0.005808 -0.005502 -0.000167
v -0.004489 -0.006622 0.000333
v -0.004489 -0.006622 -0.000167
v -0.002961 -0.007432 0.000333
v -0.002961 -0.007432 -0.000167
v -0.001294 -0.007895 0.000333
v -0.001294 -0.007895 -0.000167
v 0.000433 -0.007988 0.000333
v 0.000433 -0.007988 -0.000167
v 0.002140 -0.007708 0.000333
v 0.002140 -0.007708 -0.000167
v 0.003747 -0.007068 0.000333
v 0.003747 -0.007068 -0.000167
v 0.005179 -0.006097 0.000333
v 0.005179 -0.006097 -0.000167
v 0.006369 -0.004841 0.000333
v 0.006369 -0.004841 -0.000167
v 0.007261 -0.003359 0.000333
v 0.007261 -0.003359 -0.000167
v 0.007813 -0.001720 0.000333
v 0.008000 0.000000 0.000333
v 0.009300 -0.011450 0.004133
v 0.009300 -0.013450 0.004133
v 0.009800 -0.013450 0.004133
v 0.009800 0.013450 0.004133
v 0.009300 0.013450 0.004133
v 0.009300 0.011250 0.004133
v -0.009800 0.011250 0.004133
v -0.009800 -0.011450 0.004133
v -0.002298 -0.010750 0.013605
v -0.002819 -0.010750 0.014507
v -0.003000 -0.010750 0.015533
v 0.000521 -0.010750 0.018487
v 0.000521 -0.010750 0.012578
v -0.000521 -0.010750 0.018487
v -0.000521 -0.010750 0.012578
v -0.001500 -0.010750 0.012935
v -0.002819 -0.010750 0.016559
v -0.002298 -0.010750 0.017461
v 0.001500 -0.010750 0.018131
v 0.002298 -0.010750 0.013605
v 0.001500 -0.010750 0.012935
v -0.001500 -0.010750 0.018131
v 0.003000 -0.010750 0.015533
v 0.002819 -0.010750 0.014507
v 0.002819 -0.010750 0.016559
v 0.002298 -0.010750 0.017461
v 0.009800 -0.013450 -0.000167
v 0.009050 -0.013450 0.004200
v -0.009800 -0.013450 -0.000167
v 0.008867 -0.013450 0.004383
v 0.008800 -0.013450 0.004633
v 0.008800 -0.013450 0.007833
v -0.009800 -0.013450 0.018833
v -0.006800 -0.013450 0.021833
v -0.005200 -0.013450 0.021833
v 0.008628 -0.013450 0.010023
v 0.008115 -0.013450 0.012159
v 0.007274 -0.013450 0.014189
v 0.003029 -0.013450 0.019159
v 0.001156 -0.013450 0.020307
v -0.007727 -0.013450 0.021686
v -0.008563 -0.013450 0.021260
v -0.009653 -0.013450 0.019760
v -0.009227 -0.013450 0.020596
v -0.000874 -0.013450 0.021148
v -0.003010 -0.013450 0.021661
v 0.006126 -0.013450 0.016062
v 0.004699 -0.013450 0.017732
v 0.009050 -0.011450 0.004200
v 0.008867 -0.011450 0.004383
v 0.008800 -0.011450 0.004633
v -0.007727 -0.011450 0.021686
v -0.002298 -0.011450 0.017461
v -0.008563 -0.011450 0.021260
v -0.002819 -0.011450 0.016559
v -0.009227 -0.011450 0.020596
v 0.003000 -0.011450 0.015533
v 0.002819 -0.011450 0.016559
v 0.004699 -0.011450 0.017732
v -0.002819 -0.011450 0.014507
v -0.002298 -0.011450 0.013605
v 0.003029 -0.011450 0.019159
v -0.003000 -0.011450 0.015533
v -0.009800 -0.011450 0.018833
v -0.009653 -0.011450 0.019760
v -0.006800 -0.011450 0.021833
v -0.005200 -0.011450 0.021833
v -0.001500 -0.011450 0.018131
v -0.003010 -0.011450 0.021661
v -0.000521 -0.011450 0.018487
v -0.000874 -0.011450 0.021148
v 0.000521 -0.011450 0.018487
v 0.001156 -0.011450 0.020307
v 0.001500 -0.011450 0.018131
v 0.002298 -0.011450 0.017461
v -0.001500 -0.011450 0.012935
v -0.000521 -0.011450 0.012578
v 0.001500 -0.011450 0.012935
v 0.002298 -0.011450 0.013605
v 0.008800 -0.011450 0.007833
v 0.000521 -0.011450 0.012578
v 0.006126 -0.011450 0.016062
v 0.007274 -0.011450 0.014189
v 0.002819 -0.011450 0.014507
v 0.008115 -0.011450 0.012159
v 0.008628 -0.011450 0.010023
v 0.003614 0.010450 0.016707
v 0.003074 0.010450 0.017766
v -0.002234 0.010450 0.012459
v 0.002234 0.010450 0.018607
v 0.001174 0.010450 0.019147
v 0.000000 0.010450 0.019333
v -0.001174 0.010450 0.019147
v -0.002234 0.010450 0.018607
v -0.003800 0.010450 0.015533
v -0.003074 0.010450 0.013299
v -0.003614 0.010450 0.014359
v -0.001174 0.010450 0.011919
v 0.000000 0.010450 0.011733
v 0.001174 0.010450 0.011919
v 0.002234 0.010450 0.012459
v 0.003074 0.010450 0.013299
v 0.003800 0.010450 0.015533
v 0.003614 0.010450 0.014359
v -0.003074 0.010450 0.017766
v -0.003614 0.010450 0.016707
v 0.009800 0.013450 -0.000167
v 0.009050 0.013450 0.004200
v 0.008867 0.013450 0.004383
v -0.009800 0.013450 -0.000167
v 0.008800 0.013450 0.004633
v 0.001156 0.013450 0.020307
v 0.003029 0.013450 0.019159
v 0.007274 0.013450 0.014189
v 0.008115 0.013450 0.012159
v -0.000874 0.013450 0.021148
v 0.008628 0.013450 0.010023
v 0.008800 0.013450 0.007833
v -0.008563 0.013450 0.021260
v -0.007727 0.013450 0.021686
v -0.009227 0.013450 0.020596
v -0.006800 0.013450 0.021833
v -0.009653 0.013450 0.019760
v 0.004699 0.013450 0.017732
v 0.006126 0.013450 0.016062
v -0.009800 0.013450 0.018833
v -0.005200 0.013450 0.021833
v -0.003010 0.013450 0.021661
v 0.009050 0.011250 0.004200
v 0.008867 0.011250 0.004383
v 0.008800 0.011250 0.004633
v 0.003614 0.011250 0.014359
v 0.003074 0.011250 0.013299
v -0.001174 0.011250 0.011919
v -0.002234 0.011250 0.012459
v -0.009653 0.011250 0.019760
v -0.009800 0.011250 0.018833
v -0.003614 0.011250 0.016707
v 0.002234 0.011250 0.012459
v 0.001174 0.011250 0.011919
v 0.000000 0.011250 0.011733
v 0.008800 0.011250 0.007833
v 0.008628 0.011250 0.010023
v -0.003074 0.011250 0.013299
v -0.003614 0.011250 0.014359
v -0.003800 0.011250 0.015533
v -0.006800 0.011250 0.021833
v -0.007727 0.011250 0.021686
v -0.003074 0.011250 0.017766
v -0.008563 0.011250 0.021260
v -0.009227 0.011250 0.020596
v 0.008115 0.011250 0.012159
v 0.007274 0.011250 0.014189
v 0.006126 0.011250 0.016062
v -0.005200 0.011250 0.021833
v -0.002234 0.011250 0.018607
v -0.003010 0.011250 0.021661
v -0.001174 0.011250 0.019147
v -0.000874 0.011250 0.021148
v 0.000000 0.011250 0.019333
v 0.001156 0.011250 0.020307
v 0.001174 0.011250 0.019147
v 0.003029 0.011250 0.019159
v 0.002234 0.011250 0.018607
v 0.004699 0.011250 0.017732
v 0.003074 0.011250 0.017766
v 0.003614 0.011250 0.016707
v 0.003800 0.011250 0.015533
v 0.000000 0.010450 0.011733
v 0.000000 0.011250 0.011733
v 0.000000 0.011250 0.019333
v 0.008000 -0.000000 -0.000167
vn -0.6651 0.1464 -0.7323
vn -1.0000 -0.0000 -0.0000
vn -0.7128 -0.1569 -0.6836
vn -0.6651 -0.1464 -0.7323
vn -0.6624 -0.3065 -0.6836
vn -0.6181 -0.2859 -0.7323
vn -0.5811 -0.4417 -0.6836
vn -0.5421 -0.4121 -0.7323
vn -0.4725 -0.5563 -0.6836
vn -0.4409 -0.5190 -0.7323
vn -0.3419 -0.6449 -0.6836
vn -0.3190 -0.6017 -0.7323
vn -0.1953 -0.7033 -0.6836
vn -0.1822 -0.6562 -0.7323
vn -0.0395 -0.7288 -0.6836
vn -0.0369 -0.6800 -0.7323
vn 0.1181 -0.7203 -0.6836
vn 0.1102 -0.6720 -0.7323
vn 0.2702 -0.6781 -0.6836
vn 0.2521 -0.6326 -0.7323
vn 0.4096 -0.6041 -0.6836
vn 0.3822 -0.5637 -0.7323
vn 0.5299 -0.5019 -0.6836
vn 0.4944 -0.4683 -0.7323
vn 0.6254 -0.3763 -0.6836
vn 0.5835 -0.3511 -0.7323
vn 0.6917 -0.2331 -0.6836
vn 0.6454 -0.2174 -0.7323
vn 0.7256 -0.0789 -0.6836
vn 0.6770 -0.0736 -0.7323
vn 0.7256 0.0789 -0.6836
vn 0.6770 0.0736 -0.7323
vn 0.6917 0.2331 -0.6836
vn 0.6454 0.2174 -0.7323
vn 0.6254 0.3763 -0.6836
vn 0.5835 0.3511 -0.7323
vn 0.5299 0.5019 -0.6836
vn 0.4944 0.4683 -0.7323
vn 0.4096 0.6041 -0.6836
vn 0.3822 0.5637 -0.7323
vn 0.2702 0.6781 -0.6836
vn 0.2521 0.6326 -0.7323
vn 0.1181 0.7203 -0.6836
vn 0.1102 0.6720 -0.7323
vn -0.0395 0.7288 -0.6836
vn -0.0369 0.6800 -0.7323
vn -0.1953 0.7033 -0.6836
vn -0.1822 0.6562 -0.7323
vn -0.3419 0.6449 -0.6836
vn -0.3190 0.6017 -0.7323
vn -0.4725 0.5563 -0.6836
vn -0.4409 0.5190 -0.7323
vn -0.5811 0.4417 -0.6836
vn -0.5421 0.4121 -0.7323
vn -0.6624 0.3065 -0.6836
vn -0.6181 0.2859 -0.7323
vn -0.7128 0.1569 -0.6836
vn -0.0000 -0.0000 -1.0000
vn 0.0651 0.0419 0.9970
vn 0.0881 -0.7377 0.6694
vn 0.5774 -0.5774 0.5774
vn 0.5773 0.5774 0.5774
vn 0.0881 0.7377 0.6694
vn 0.0651 -0.0419 0.9970
vn -0.9045 -0.3015 0.3015
vn -0.9045 0.3015 0.3015
vn -0.5687 0.6700 -0.4772
vn -0.6976 0.6700 -0.2539
vn -0.7423 0.6700 -0.0000
vn 0.1289 0.6700 0.7311
vn 0.1289 0.6700 -0.7311
vn -0.1289 0.6700 0.7311
vn -0.1289 0.6700 -0.7311
vn -0.3712 0.6700 -0.6429
vn -0.6976 0.6700 0.2539
vn -0.5687 0.6700 0.4772
vn 0.3712 0.6700 0.6429
vn 0.5687 0.6700 -0.4772
vn 0.3712 0.6700 -0.6429
vn -0.3712 0.6700 0.6429
vn 0.7423 0.6700 -0.0000
vn 0.6976 0.6700 -0.2539
vn 0.6976 0.6700 0.2539
vn 0.5687 0.6700 0.4772
vn 0.5773 -0.5773 -0.5774
vn 0.3189 -0.7703 0.5523
vn -0.5773 -0.5774 -0.5774
vn 0.5523 -0.7703 0.3189
vn 0.6694 -0.7377 0.0881
vn 0.7152 -0.6984 0.0281
vn -0.7217 -0.6899 0.0568
vn -0.0568 -0.6899 0.7217
vn 0.0281 -0.6984 0.7152
vn 0.7150 -0.6899 0.1132
vn 0.6885 -0.6899 0.2237
vn 0.6450 -0.6899 0.3287
vn 0.4255 -0.6899 0.5857
vn 0.3287 -0.6899 0.6450
vn -0.2284 -0.6735 0.7030
vn -0.4345 -0.6735 0.5980
vn -0.7030 -0.6735 0.2284
vn -0.5980 -0.6735 0.4345
vn 0.2237 -0.6899 0.6885
vn 0.1132 -0.6899 0.7150
vn 0.5857 -0.6899 0.4255
vn 0.5119 -0.6899 0.5119
vn 0.3189 0.7703 0.5523
vn 0.5523 0.7703 0.3189
vn 0.6694 0.7377 0.0881
vn -0.2284 0.6735 0.7030
vn -0.5081 0.7484 0.4264
vn -0.4345 0.6735 0.5980
vn -0.6233 0.7484 0.2269
vn -0.5980 0.6735 0.4345
vn 0.6633 0.7484 -0.0000
vn 0.6233 0.7484 0.2269
vn 0.5119 0.6899 0.5119
vn -0.6233 0.7484 -0.2269
vn -0.5081 0.7484 -0.4264
vn 0.4255 0.6899 0.5857
vn -0.6633 0.7484 -0.0000
vn -0.7217 0.6899 0.0568
vn -0.7030 0.6735 0.2284
vn -0.0568 0.6899 0.7217
vn 0.0281 0.6984 0.7152
vn -0.3316 0.7484 0.5744
vn 0.1132 0.6899 0.7150
vn -0.1152 0.7484 0.6532
vn 0.2237 0.6899 0.6885
vn 0.1152 0.7484 0.6532
vn 0.3287 0.6899 0.6450
vn 0.3316 0.7484 0.5744
vn 0.5081 0.7484 0.4264
vn -0.3316 0.7484 -0.5744
vn -0.1152 0.7484 -0.6532
vn 0.3316 0.7484 -0.5744
vn 0.5081 0.7484 -0.4264
vn 0.7152 0.6984 0.0281
vn 0.1152 0.7484 -0.6532
vn 0.5857 0.6899 0.4255
vn 0.6450 0.6899 0.3287
vn 0.6233 0.7484 -0.2269
vn 0.6885 0.6899 0.2237
vn 0.7150 0.6899 0.1132
vn 0.7030 -0.6735 0.2284
vn 0.5980 -0.6735 0.4345
vn -0.4345 -0.6735 -0.5980
vn 0.4345 -0.6735 0.5980
vn 0.2284 -0.6735 0.7030
vn -0.0000 -0.6735 0.7392
vn -0.7392 -0.6735 -0.0000
vn -0.5980 -0.6735 -0.4345
vn -0.7030 -0.6735 -0.2284
vn -0.2284 -0.6735 -0.7030
vn -0.0000 -1.0000 -0.0000
vn 0.2284 -0.6735 -0.7030
vn 0.4345 -0.6735 -0.5980
vn 0.5980 -0.6735 -0.4345
vn 0.7392 -0.6735 -0.0000
vn 0.7030 -0.6735 -0.2284
vn 0.5773 0.5774 -0.5774
vn -0.5774 0.5774 -0.5773
vn 0.6354 -0.7441 -0.2065
vn 0.5405 -0.7441 -0.3927
vn -0.2065 -0.7441 -0.6354
vn -0.3927 -0.7441 -0.5405
vn -0.6354 -0.7441 0.2065
vn 0.3927 -0.7441 -0.5405
vn 0.2065 -0.7441 -0.6354
vn -0.5405 -0.7441 -0.3927
vn -0.6354 -0.7441 -0.2065
vn -0.6681 -0.7441 -0.0000
vn -0.5405 -0.7441 0.3927
vn -0.3927 -0.7441 0.5405
vn -0.2065 -0.7441 0.6354
vn 0.2065 -0.7441 0.6354
vn 0.3927 -0.7441 0.5405
vn 0.5405 -0.7441 0.3927
vn 0.6354 -0.7441 0.2065
vn 0.6681 -0.7441 -0.0000
vn -0.0000 -0.0000 1.0000
s 1
f 1//1 2//2 3//2
f 3//2 2//2 4//3
f 3//2 4//3 5//4
f 5//4 4//3 6//5
f 5//4 6//5 7//6
f 7//6 6//5 8//7
f 7//6 8//7 9//8
f 9//8 8//7 10//9
f 9//8 10//9 11//10
f 11//10 10//9 12//11
f 11//10 12//11 13//12
f 13//12 12//11 14//13
f 13//12 14//13 15//14
f 15//14 14//13 16//15
f 15//14 16//15 17//16
f 17//16 16//15 18//17
f 17//16 18//17 19//18
f 19//18 18//17 20//19
f 19//18 20//19 21//20
f 21//20 20//19 22//21
f 21//20 22//21 23//22
f 23//22 22//21 24//23
f 23//22 24//23 25//24
f 25//24 24//23 26//25
f 25//24 26//25 27//26
f 27//26 26//25 28//27
f 27//26 28//27 29//28
f 29//28 28//27 30//29
f 29//28 30//29 31//30
f 31//30 30//29 32//31
f 31//30 32//31 33//32
f 33//32 32//31 34//33
f 33//32 34//33 35//34
f 35//34 34//33 36//35
f 35//34 36//35 37//36
f 37//36 36//35 38//37
f 37//36 38//37 39//38
f 39//38 38//37 40//39
f 39//38 40//39 41//40
f 41//40 40//39 42//41
f 41//40 42//41 43//42
f 43//42 42//41 44//43
f 43//42 44//43 45//44
f 45//44 44//43 46//45
f 45//44 46//45 47//46
f 47//46 46//45 48//47
f 47//46 48//47 49//48
f 49//48 48//47 50//49
f 49//48 50//49 51//50
f 51//50 50//49 52//51
f 51//50 52//51 53//52
f 53//52 52//51 54//53
f 53//52 54//53 55//54
f 55//54 54//53 56//55
f 55//54 56//55 57//56
f 57//56 56//55 58//57
f 57//56 58//57 1//1
f 1//1 58//57 2//2
f 44//43 42//41 16//15
f 44//43 16//15 46//45
f 46//45 16//15 14//13
f 46//45 14//13 12//11
f 54//53 52//51 12//11
f 42//41 40//39 16//15
f 16//15 40//39 38//37
f 16//15 38//37 36//35
f 36//35 34//33 16//15
f 16//15 34//33 32//31
f 16//15 32//31 30//29
f 10//9 8//7 58//57
f 58//57 8//7 6//5
f 58//57 6//5 59//58
f 59//58 6//5 4//3
f 10//9 58//57 12//11
f 12//11 58//57 56//55
f 12//11 56//55 54//53
f 52//51 50//49 12//11
f 12//11 50//49 48//47
f 12//11 48//47 46//45
f 30//29 28//27 16//15
f 16//15 28//27 26//25
f 16//15 26//25 24//23
f 24//23 22//21 16//15
f 16//15 22//21 20//19
f 16//15 20//19 18//17
f 60//59 61//60 62//61
f 63//62 64//63 65//64
f 66//65 67//66 65//64
f 65//64 67//66 60//59
f 65//64 60//59 63//62
f 63//62 60//59 62//61
f 68//67 69//68 70//69
f 71//70 72//71 73//72
f 73//72 72//71 74//73
f 73//72 74//73 75//74
f 70//69 76//75 77//76
f 71//70 78//77 72//71
f 72//71 78//77 79//78
f 72//71 79//78 80//79
f 75//74 68//67 73//72
f 73//72 68//67 70//69
f 73//72 70//69 81//80
f 81//80 70//69 77//76
f 82//81 83//82 84//83
f 84//83 83//82 79//78
f 84//83 79//78 85//84
f 85//84 79//78 78//77
f 62//61 61//60 86//85
f 86//85 61//60 87//86
f 86//85 87//86 88//87
f 87//86 89//88 88//87
f 88//87 89//88 90//89
f 88//87 90//89 91//90
f 92//91 88//87 93//92
f 93//92 88//87 94//93
f 91//90 95//94 88//87
f 88//87 95//94 96//95
f 88//87 96//95 97//96
f 88//87 98//97 99//98
f 93//92 100//99 92//91
f 92//91 100//99 101//100
f 92//91 101//100 102//101
f 102//101 101//100 103//102
f 99//98 104//103 88//87
f 88//87 104//103 105//104
f 88//87 105//104 94//93
f 97//96 106//105 88//87
f 88//87 106//105 107//106
f 88//87 107//106 98//97
f 61//60 60//59 108//107
f 61//60 108//107 87//86
f 87//86 108//107 109//108
f 87//86 109//108 89//88
f 89//88 109//108 110//109
f 89//88 110//109 90//89
f 60//59 67//66 108//107
f 108//107 67//66 109//108
f 111//110 112//111 113//112
f 113//112 112//111 114//113
f 113//112 114//113 115//114
f 116//115 117//116 118//117
f 67//66 119//118 120//119
f 118//117 117//116 121//120
f 119//118 67//66 122//121
f 122//121 67//66 123//122
f 122//121 123//122 114//113
f 114//113 123//122 124//123
f 114//113 124//123 115//114
f 111//110 125//124 112//111
f 112//111 125//124 126//125
f 112//111 126//125 127//126
f 127//126 126//125 128//127
f 127//126 128//127 129//128
f 129//128 128//127 130//129
f 129//128 130//129 131//130
f 131//130 130//129 132//131
f 131//130 132//131 133//132
f 133//132 132//131 121//120
f 133//132 121//120 134//133
f 134//133 121//120 117//116
f 120//119 135//134 67//66
f 67//66 135//134 136//135
f 67//66 136//135 109//108
f 137//136 138//137 139//138
f 136//135 140//139 109//108
f 109//108 140//139 137//136
f 109//108 137//136 110//109
f 110//109 137//136 139//138
f 118//117 141//140 116//115
f 116//115 141//140 142//141
f 116//115 142//141 143//142
f 143//142 142//141 144//143
f 143//142 144//143 138//137
f 138//137 144//143 145//144
f 138//137 145//144 139//138
f 91//90 139//138 145//144
f 91//90 145//144 95//94
f 95//94 145//144 144//143
f 95//94 144//143 96//95
f 96//95 144//143 142//141
f 96//95 142//141 97//96
f 97//96 142//141 141//140
f 97//96 141//140 106//105
f 106//105 141//140 118//117
f 106//105 118//117 107//106
f 107//106 118//117 121//120
f 107//106 121//120 98//97
f 98//97 121//120 132//131
f 98//97 132//131 99//98
f 99//98 132//131 130//129
f 99//98 130//129 104//103
f 104//103 130//129 128//127
f 104//103 128//127 105//104
f 105//104 128//127 126//125
f 105//104 126//125 94//93
f 139//138 91//90 110//109
f 110//109 91//90 90//89
f 93//92 125//124 111//110
f 93//92 111//110 100//99
f 100//99 111//110 113//112
f 100//99 113//112 101//100
f 101//100 113//112 115//114
f 101//100 115//114 103//102
f 103//102 115//114 124//123
f 103//102 124//123 102//101
f 102//101 124//123 123//122
f 102//101 123//122 92//91
f 94//93 126//125 93//92
f 93//92 126//125 125//124
f 143//142 82//81 116//115
f 116//115 82//81 84//83
f 116//115 84//83 117//116
f 117//116 84//83 85//84
f 117//116 85//84 134//133
f 134//133 85//84 78//77
f 134//133 78//77 133//132
f 133//132 78//77 71//70
f 133//132 71//70 131//130
f 131//130 71//70 73//72
f 131//130 73//72 129//128
f 129//128 73//72 81//80
f 129//128 81//80 127//126
f 127//126 81//80 77//76
f 127//126 77//76 112//111
f 112//111 77//76 76//75
f 112//111 76//75 114//113
f 114//113 76//75 70//69
f 114//113 70//69 122//121
f 122//121 70//69 69//68
f 122//121 69//68 119//118
f 119//118 69//68 68//67
f 119//118 68//67 120//119
f 120//119 68//67 75//74
f 120//119 75//74 135//134
f 135//134 75//74 74//73
f 135//134 74//73 136//135
f 136//135 74//73 72//71
f 136//135 72//71 140//139
f 140//139 72//71 80//79
f 140//139 80//79 137//136
f 137//136 80//79 79//78
f 137//136 79//78 138//137
f 138//137 79//78 83//82
f 138//137 83//82 143//142
f 143//142 83//82 82//81
f 146//145 147//146 148//147
f 148//147 147//146 149//148
f 148//147 149//148 150//149
f 150//149 151//150 148//147
f 148//147 151//150 152//99
f 148//147 152//99 153//100
f 148//147 154//151 155//152
f 155//152 154//151 156//153
f 148//147 157//154 146//145
f 146//145 157//154 158//155
f 146//145 158//155 159//156
f 159//156 160//157 146//145
f 146//145 160//157 161//158
f 146//145 161//158 162//159
f 162//159 161//158 163//160
f 153//100 164//102 148//147
f 148//147 164//102 165//101
f 148//147 165//101 154//151
f 63//62 166//161 64//63
f 64//63 166//161 167//107
f 167//107 166//161 168//108
f 168//108 166//161 169//162
f 168//108 169//162 170//109
f 171//131 172//120 169//162
f 169//162 173//141 174//143
f 171//131 169//162 175//129
f 174//143 176//144 169//162
f 169//162 176//144 177//138
f 169//162 177//138 170//109
f 178//112 179//110 180//114
f 180//114 179//110 181//124
f 180//114 181//124 182//123
f 172//120 183//117 169//162
f 169//162 183//117 184//140
f 169//162 184//140 173//141
f 182//123 181//124 185//122
f 185//122 181//124 186//125
f 185//122 186//125 169//162
f 169//162 186//125 187//127
f 169//162 187//127 175//129
f 65//64 64//63 167//107
f 65//64 167//107 188//86
f 188//86 167//107 168//108
f 188//86 168//108 189//88
f 189//88 168//108 170//109
f 189//88 170//109 190//89
f 189//88 191//163 192//164
f 193//165 194//166 188//86
f 188//86 194//166 66//65
f 188//86 66//65 65//64
f 195//101 196//91 197//167
f 192//164 198//168 189//88
f 189//88 198//168 199//169
f 189//88 199//169 188//86
f 188//86 199//169 200//155
f 188//86 200//155 193//165
f 190//89 201//90 202//94
f 194//166 203//170 66//65
f 66//65 203//170 204//171
f 66//65 204//171 196//91
f 196//91 204//171 205//172
f 196//91 205//172 197//167
f 206//92 207//99 208//173
f 208//173 207//99 209//100
f 208//173 209//100 197//167
f 197//167 209//100 210//102
f 197//167 210//102 195//101
f 202//94 211//95 190//89
f 190//89 211//95 212//96
f 190//89 212//96 213//105
f 206//92 208//173 214//93
f 214//93 208//173 215//174
f 214//93 215//174 216//104
f 216//104 215//174 217//175
f 216//104 217//175 218//103
f 218//103 217//175 219//155
f 218//103 219//155 220//98
f 220//98 219//155 221//176
f 220//98 221//176 222//97
f 222//97 221//176 223//177
f 222//97 223//177 224//106
f 224//106 223//177 225//178
f 224//106 225//178 226//179
f 213//105 224//106 190//89
f 190//89 224//106 226//179
f 190//89 226//179 189//88
f 189//88 226//179 227//180
f 189//88 227//180 191//163
f 206//92 181//124 179//110
f 206//92 179//110 207//99
f 207//99 179//110 178//112
f 207//99 178//112 209//100
f 209//100 178//112 180//114
f 209//100 180//114 210//102
f 210//102 180//114 182//123
f 210//102 182//123 195//101
f 195//101 182//123 185//122
f 195//101 185//122 196//91
f 177//138 201//90 170//109
f 170//109 201//90 190//89
f 201//90 177//138 176//144
f 201//90 176//144 202//94
f 202//94 176//144 174//143
f 202//94 174//143 211//95
f 211//95 174//143 173//141
f 211//95 173//141 212//96
f 212//96 173//141 184//140
f 212//96 184//140 213//105
f 213//105 184//140 183//117
f 213//105 183//117 224//106
f 224//106 183//117 172//120
f 224//106 172//120 222//97
f 222//97 172//120 171//131
f 222//97 171//131 220//98
f 220//98 171//131 175//129
f 220//98 175//129 218//103
f 218//103 175//129 187//127
f 218//103 187//127 216//104
f 216//104 187//127 186//125
f 216//104 186//125 214//93
f 181//124 206//92 186//125
f 186//125 206//92 214//93
f 199//169 228//58 229//58
f 229//58 228//58 157//154
f 229//58 157//154 193//165
f 193//165 157//154 148//147
f 193//165 148//147 194//166
f 194//166 148//147 155//152
f 194//166 155//152 203//170
f 203//170 155//152 156//153
f 203//170 156//153 204//171
f 204//171 156//153 154//151
f 204//171 154//151 205//172
f 205//172 154//151 165//101
f 205//172 165//101 197//167
f 197//167 165//101 164//102
f 197//167 164//102 208//173
f 208//173 164//102 153//100
f 208//173 153//100 215//174
f 215//174 153//100 152//99
f 215//174 152//99 217//175
f 217//175 152//99 151//150
f 217//175 151//150 230//181
f 230//181 151//150 150//149
f 230//181 150//149 221//176
f 221//176 150//149 149//148
f 221//176 149//148 223//177
f 223//177 149//148 147//146
f 223//177 147//146 225//178
f 225//178 147//146 146//145
f 225//178 146//145 226//179
f 226//179 146//145 162//159
f 226//179 162//159 227//180
f 227//180 162//159 163//160
f 227//180 163//160 191//163
f 191//163 163//160 161//158
f 191//163 161//158 192//164
f 192//164 161//158 160//157
f 192//164 160//157 198//168
f 198//168 160//157 159//156
f 198//168 159//156 199//169
f 199//169 159//156 228//58
f 169//162 31//30 88//87
f 88//87 31//30 33//32
f 88//87 33//32 35//34
f 35//34 37//36 88//87
f 88//87 37//36 39//38
f 88//87 39//38 41//40
f 21//20 23//22 169//162
f 169//162 23//22 25//24
f 86//85 49//48 51//50
f 7//6 9//8 166//161
f 166//161 9//8 11//10
f 166//161 11//10 13//12
f 13//12 15//14 166//161
f 166//161 15//14 17//16
f 166//161 17//16 169//162
f 169//162 17//16 19//18
f 169//162 19//18 21//20
f 25//24 27//26 169//162
f 169//162 27//26 29//28
f 169//162 29//28 31//30
f 41//40 43//42 88//87
f 88//87 43//42 45//44
f 88//87 45//44 86//85
f 86//85 45//44 47//46
f 86//85 47//46 49//48
f 51//50 53//52 86//85
f 86//85 53//52 55//54
f 86//85 55//54 57//56
f 57//56 1//1 86//85
f 86//85 1//1 231//58
f 86//85 231//58 166//161
f 166//161 231//58 5//4
f 166//161 5//4 7//6
f 86//85 166//161 62//61
f 62//61 166//161 63//62
f 196//91 185//122 66//65
f 66//65 185//122 169//162
f 66//65 169//162 67//66
f 67//66 169//162 88//87
f 67//66 88//87 123//122
f 123//122 88//87 92//91
