# Blender 4.0.1
# www.blender.org
mtllib allegro.mtl
usemtl shiny_dark_grey
o link_4.0
v 0.007813 -0.001720 0.000600
v 0.008000 0.000000 0.001100
v 0.008000 0.000000 0.000600
v 0.007813 0.001720 0.001100
v 0.007813 0.001720 0.000600
v 0.007261 0.003359 0.001100
v 0.007261 0.003359 0.000600
v 0.006369 0.004841 0.001100
v 0.006369 0.004841 0.000600
v 0.005179 0.006097 0.001100
v 0.005179 0.006097 0.000600
v 0.003747 0.007068 0.001100
v 0.003747 0.007068 0.000600
v 0.002140 0.007708 0.001100
v 0.002140 0.007708 0.000600
v 0.000433 0.007988 0.001100
v 0.000433 0.007988 0.000600
v -0.001294 0.007895 0.001100
v -0.001294 0.007895 0.000600
v -0.002961 0.007432 0.001100
v -0.002961 0.007432 0.000600
v -0.004489 0.006622 0.001100
v -0.004489 0.006622 0.000600
v -0.005808 0.005502 0.001100
v -0.005808 0.005502 0.000600
v -0.006855 0.004124 0.001100
v -0.006855 0.004124 0.000600
v -0.007581 0.002554 0.001100
v -0.007581 0.002554 0.000600
v -0.007953 0.000865 0.001100
v -0.007953 0.000865 0.000600
v -0.007953 -0.000865 0.001100
v -0.007953 -0.000865 0.000600
v -0.007581 -0.002554 0.001100
v -0.007581 -0.002554 0.000600
v -0.006855 -0.004124 0.001100
v -0.006855 -0.004124 0.000600
v -0.005808 -0.005502 0.001100
v -0.005808 -0.005502 0.000600
v -0.004489 -0.006622 0.001100
v -0.004489 -0.006622 0.000600
v -0.002961 -0.007432 0.001100
v -0.002961 -0.007432 0.000600
v -0.001294 -0.007895 0.001100
v -0.001294 -0.007895 0.000600
v 0.000433 -0.007988 0.001100
v 0.000433 -0.007988 0.000600
v 0.002140 -0.007708 0.001100
v 0.002140 -0.007708 0.000600
v 0.003747 -0.007068 0.001100
v 0.003747 -0.007068 0.000600
v 0.005179 -0.006097 0.001100
v 0.005179 -0.006097 0.000600
v 0.006369 -0.004841 0.001100
v 0.006369 -0.004841 0.000600
v 0.007261 -0.003359 0.001100
v 0.007261 -0.003359 0.000600
v 0.007813 -0.001720 0.001100
v 0.008000 0.000000 0.001100
v 0.009300 -0.011450 0.004900
v 0.009300 -0.013450 0.004900
v 0.009800 -0.013450 0.004900
v 0.009800 0.013450 0.004900
v 0.009300 0.013450 0.004900
v 0.009300 0.011250 0.004900
v -0.009800 0.011250 0.004900
v -0.009800 -0.011450 0.004900
v 0.003614 0.010450 0.017474
v 0.003074 0.010450 0.018534
v 0.001174 0.010450 0.012686
v -0.003074 0.010450 0.014066
v -0.002234 0.010450 0.013226
v -0.001174 0.010450 0.012686
v 0.000000 0.010450 0.012500
v 0.002234 0.010450 0.019374
v 0.001174 0.010450 0.019914
v 0.000000 0.010450 0.020100
v -0.003614 0.010450 0.017474
v -0.003800 0.010450 0.016300
v -0.003614 0.010450 0.015126
v 0.002234 0.010450 0.013226
v 0.003074 0.010450 0.014066
v 0.003614 0.010450 0.015126
v 0.003800 0.010450 0.016300
v -0.001174 0.010450 0.019914
v -0.002234 0.010450 0.019374
v -0.003074 0.010450 0.018534
v 0.009800 0.013450 0.000600
v 0.008800 0.013450 0.008600
v 0.008800 0.013450 0.005400
v -0.009800 0.013450 0.000600
v 0.008838 0.013450 0.005209
v 0.008946 0.013450 0.005046
v 0.009109 0.013450 0.004938
v -0.006800 0.013450 0.022600
v -0.009800 0.013450 0.019600
v -0.005200 0.013450 0.022600
v -0.003010 0.013450 0.022428
v -0.000874 0.013450 0.021915
v -0.009653 0.013450 0.020527
v -0.009227 0.013450 0.021363
v -0.007727 0.013450 0.022453
v -0.008563 0.013450 0.022027
v 0.007274 0.013450 0.014956
v 0.006126 0.013450 0.016829
v 0.004699 0.013450 0.018499
v 0.008115 0.013450 0.012926
v 0.008628 0.013450 0.010790
v 0.001156 0.013450 0.021074
v 0.003029 0.013450 0.019926
v 0.009109 0.011250 0.004938
v 0.008946 0.011250 0.005046
v 0.008838 0.011250 0.005209
v 0.008800 0.011250 0.005400
v 0.002234 0.011250 0.013226
v 0.001174 0.011250 0.012686
v 0.000000 0.011250 0.012500
v -0.001174 0.011250 0.012686
v -0.002234 0.011250 0.013226
v -0.003074 0.011250 0.014066
v -0.003614 0.011250 0.015126
v -0.009800 0.011250 0.019600
v -0.007727 0.011250 0.022453
v -0.008563 0.011250 0.022027
v -0.003074 0.011250 0.018534
v 0.003614 0.011250 0.015126
v 0.007274 0.011250 0.014956
v 0.003800 0.011250 0.016300
v 0.006126 0.011250 0.016829
v 0.003614 0.011250 0.017474
v 0.004699 0.011250 0.018499
v 0.003074 0.011250 0.018534
v 0.008800 0.011250 0.008600
v 0.003074 0.011250 0.014066
v 0.008628 0.011250 0.010790
v 0.008115 0.011250 0.012926
v -0.003800 0.011250 0.016300
v -0.003614 0.011250 0.017474
v -0.009653 0.011250 0.020527
v -0.009227 0.011250 0.021363
v 0.002234 0.011250 0.019374
v 0.003029 0.011250 0.019926
v 0.001174 0.011250 0.019914
v 0.001156 0.011250 0.021074
v 0.000000 0.011250 0.020100
v -0.000874 0.011250 0.021915
v -0.001174 0.011250 0.019914
v -0.003010 0.011250 0.022428
v -0.002234 0.011250 0.019374
v -0.005200 0.011250 0.022600
v -0.006800 0.011250 0.022600
v 0.000000 0.010450 0.020100
v 0.000000 0.011250 0.020100
v 0.000000 0.010450 0.012500
v 0.000000 0.011250 0.012500
v 0.000521 -0.010750 0.013346
v -0.001500 -0.010750 0.018898
v 0.001500 -0.010750 0.013702
v -0.000521 -0.010750 0.019254
v 0.000521 -0.010750 0.019254
v 0.001500 -0.010750 0.018898
v 0.002298 -0.010750 0.018228
v 0.002819 -0.010750 0.017326
v 0.003000 -0.010750 0.016300
v 0.002819 -0.010750 0.015274
v -0.000521 -0.010750 0.013346
v -0.001500 -0.010750 0.013702
v -0.002298 -0.010750 0.014372
v -0.002819 -0.010750 0.017326
v -0.002298 -0.010750 0.018228
v -0.003000 -0.010750 0.016300
v -0.002819 -0.010750 0.015274
v 0.002298 -0.010750 0.014372
v -0.009800 -0.013450 0.000600
v 0.008838 -0.013450 0.005209
v 0.008800 -0.013450 0.005400
v 0.009800 -0.013450 0.000600
v 0.009109 -0.013450 0.004938
v 0.008946 -0.013450 0.005046
v -0.008563 -0.013450 0.022027
v -0.009227 -0.013450 0.021363
v -0.009653 -0.013450 0.020527
v 0.008800 -0.013450 0.008600
v 0.008628 -0.013450 0.010790
v 0.008115 -0.013450 0.012926
v 0.007274 -0.013450 0.014956
v 0.006126 -0.013450 0.016829
v 0.004699 -0.013450 0.018499
v 0.003029 -0.013450 0.019926
v 0.001156 -0.013450 0.021074
v -0.000874 -0.013450 0.021915
v -0.003010 -0.013450 0.022428
v -0.005200 -0.013450 0.022600
v -0.009800 -0.013450 0.019600
v -0.006800 -0.013450 0.022600
v -0.007727 -0.013450 0.022453
v 0.009109 -0.011450 0.004938
v 0.008946 -0.011450 0.005046
v 0.008838 -0.011450 0.005209
v 0.008800 -0.011450 0.005400
v -0.002819 -0.011450 0.017326
v -0.003000 -0.011450 0.016300
v -0.009800 -0.011450 0.019600
v -0.002819 -0.011450 0.015274
v -0.002298 -0.011450 0.014372
v -0.002298 -0.011450 0.018228
v -0.009653 -0.011450 0.020527
v -0.009227 -0.011450 0.021363
v 0.003000 -0.011450 0.016300
v 0.002819 -0.011450 0.017326
v 0.004699 -0.011450 0.018499
v 0.003029 -0.011450 0.019926
v 0.002298 -0.011450 0.018228
v 0.001500 -0.011450 0.018898
v 0.001156 -0.011450 0.021074
v 0.000521 -0.011450 0.019254
v -0.000874 -0.011450 0.021915
v -0.000521 -0.011450 0.019254
v -0.003010 -0.011450 0.022428
v -0.001500 -0.011450 0.018898
v -0.005200 -0.011450 0.022600
v -0.006800 -0.011450 0.022600
v -0.008563 -0.011450 0.022027
v -0.007727 -0.011450 0.022453
v -0.001500 -0.011450 0.013702
v -0.000521 -0.011450 0.013346
v 0.000521 -0.011450 0.013346
v 0.001500 -0.011450 0.013702
v 0.006126 -0.011450 0.016829
v 0.007274 -0.011450 0.014956
v 0.002819 -0.011450 0.015274
v 0.008115 -0.011450 0.012926
v 0.002298 -0.011450 0.014372
v 0.008628 -0.011450 0.010790
v 0.008800 -0.011450 0.008600
v 0.008000 0.000000 0.000600
vn -0.6651 0.1464 -0.7323
vn -1.0000 -0.0000 -0.0000
vn -0.7128 -0.1569 -0.6836
vn -0.6651 -0.1464 -0.7323
vn -0.6624 -0.3065 -0.6836
vn -0.6181 -0.2859 -0.7323
vn -0.5811 -0.4417 -0.6836
vn -0.5421 -0.4121 -0.7323
vn -0.4725 -0.5563 -0.6836
vn -0.4409 -0.5190 -0.7323
vn -0.3419 -0.6449 -0.6836
vn -0.3190 -0.6017 -0.7323
vn -0.1953 -0.7033 -0.6836
vn -0.1822 -0.6562 -0.7323
vn -0.0395 -0.7288 -0.6836
vn -0.0369 -0.6800 -0.7323
vn 0.1181 -0.7203 -0.6836
vn 0.1102 -0.6720 -0.7323
vn 0.2702 -0.6781 -0.6836
vn 0.2521 -0.6326 -0.7323
vn 0.4096 -0.6041 -0.6836
vn 0.3822 -0.5637 -0.7323
vn 0.5299 -0.5019 -0.6836
vn 0.4944 -0.4683 -0.7323
vn 0.6254 -0.3763 -0.6836
vn 0.5835 -0.3511 -0.7323
vn 0.6917 -0.2331 -0.6836
vn 0.6454 -0.2174 -0.7323
vn 0.7256 -0.0789 -0.6836
vn 0.6770 -0.0736 -0.7323
vn 0.7256 0.0789 -0.6836
vn 0.6770 0.0736 -0.7323
vn 0.6917 0.2331 -0.6836
vn 0.6454 0.2174 -0.7323
vn 0.6254 0.3763 -0.6836
vn 0.5835 0.3511 -0.7323
vn 0.5299 0.5019 -0.6836
vn 0.4944 0.4683 -0.7323
vn 0.4096 0.6041 -0.6836
vn 0.3822 0.5637 -0.7323
vn 0.2702 0.6781 -0.6836
vn 0.2521 0.6326 -0.7323
vn 0.1181 0.7203 -0.6836
vn 0.1102 0.6720 -0.7323
vn -0.0395 0.7288 -0.6836
vn -0.0369 0.6800 -0.7323
vn -0.1953 0.7033 -0.6836
vn -0.1822 0.6562 -0.7323
vn -0.3419 0.6449 -0.6836
vn -0.3190 0.6017 -0.7323
vn -0.4725 0.5563 -0.6836
vn -0.4409 0.5190 -0.7323
vn -0.5811 0.4417 -0.6836
vn -0.5421 0.4121 -0.7323
vn -0.6624 0.3065 -0.6836
vn -0.6181 0.2859 -0.7323
vn -0.7128 0.1569 -0.6836
vn -0.0000 -0.0000 -1.0000
vn 0.0489 0.0313 0.9983
vn 0.0670 -0.7298 0.6803
vn 0.5774 -0.5774 0.5774
vn 0.5773 0.5774 0.5774
vn 0.0670 0.7298 0.6803
vn 0.0489 -0.0313 0.9983
vn -0.9045 -0.3015 0.3015
vn -0.9045 0.3015 0.3015
vn 0.7030 -0.6735 0.2284
vn 0.5980 -0.6735 0.4345
vn 0.2284 -0.6735 -0.7030
vn -0.5980 -0.6735 -0.4345
vn -0.4345 -0.6735 -0.5980
vn -0.2284 -0.6735 -0.7030
vn -0.0000 -1.0000 -0.0000
vn 0.4345 -0.6735 0.5980
vn 0.2284 -0.6735 0.7030
vn -0.7030 -0.6735 0.2284
vn -0.7392 -0.6735 -0.0000
vn -0.7030 -0.6735 -0.2284
vn 0.4345 -0.6735 -0.5980
vn 0.5980 -0.6735 -0.4345
vn 0.7030 -0.6735 -0.2284
vn 0.7392 -0.6735 -0.0000
vn -0.2284 -0.6735 0.7030
vn -0.4345 -0.6735 0.5980
vn -0.5980 -0.6735 0.4345
vn 0.5773 0.5773 -0.5774
vn 0.7152 0.6984 0.0281
vn 0.6803 0.7298 0.0670
vn -0.5774 0.5773 -0.5774
vn 0.6071 0.7538 0.2515
vn 0.4647 0.7538 0.4647
vn 0.2515 0.7538 0.6071
vn -0.0568 0.6899 0.7217
vn -0.7217 0.6899 0.0568
vn 0.0281 0.6984 0.7152
vn 0.1132 0.6899 0.7150
vn 0.2237 0.6899 0.6885
vn -0.7030 0.6735 0.2284
vn -0.5980 0.6735 0.4345
vn -0.2284 0.6735 0.7030
vn -0.4345 0.6735 0.5980
vn 0.6450 0.6899 0.3287
vn 0.5857 0.6899 0.4255
vn 0.5119 0.6899 0.5119
vn 0.6885 0.6899 0.2237
vn 0.7150 0.6899 0.1132
vn 0.3287 0.6899 0.6450
vn 0.4255 0.6899 0.5857
vn 0.2515 -0.7538 0.6071
vn 0.4647 -0.7538 0.4647
vn 0.6071 -0.7538 0.2515
vn 0.6803 -0.7298 0.0670
vn 0.3927 -0.7441 -0.5405
vn 0.2065 -0.7441 -0.6354
vn -0.2065 -0.7441 -0.6354
vn -0.3927 -0.7441 -0.5405
vn -0.5405 -0.7441 -0.3927
vn -0.6354 -0.7441 -0.2065
vn -0.7217 -0.6899 0.0568
vn -0.5405 -0.7441 0.3927
vn 0.6354 -0.7441 -0.2065
vn 0.6450 -0.6899 0.3287
vn 0.6681 -0.7441 -0.0000
vn 0.5857 -0.6899 0.4255
vn 0.6354 -0.7441 0.2065
vn 0.5119 -0.6899 0.5119
vn 0.5405 -0.7441 0.3927
vn 0.7152 -0.6984 0.0281
vn 0.5405 -0.7441 -0.3927
vn 0.7150 -0.6899 0.1132
vn 0.6885 -0.6899 0.2237
vn -0.6681 -0.7441 -0.0000
vn -0.6354 -0.7441 0.2065
vn 0.3927 -0.7441 0.5405
vn 0.4255 -0.6899 0.5857
vn 0.2065 -0.7441 0.6354
vn 0.3287 -0.6899 0.6450
vn 0.2237 -0.6899 0.6885
vn -0.2065 -0.7441 0.6354
vn 0.1132 -0.6899 0.7150
vn -0.3927 -0.7441 0.5405
vn 0.0281 -0.6984 0.7152
vn -0.0568 -0.6899 0.7217
vn -0.0000 -0.0000 1.0000
vn 0.1289 0.6700 -0.7311
vn -0.3712 0.6700 0.6429
vn 0.3712 0.6700 -0.6429
vn -0.1289 0.6700 0.7311
vn 0.1289 0.6700 0.7311
vn 0.3712 0.6700 0.6429
vn 0.5687 0.6700 0.4772
vn 0.6976 0.6700 0.2539
vn 0.7423 0.6700 -0.0000
vn 0.6976 0.6700 -0.2539
vn -0.1289 0.6700 -0.7311
vn -0.3712 0.6700 -0.6429
vn -0.5687 0.6700 -0.4772
vn -0.6976 0.6700 0.2539
vn -0.5687 0.6700 0.4772
vn -0.7423 0.6700 -0.0000
vn -0.6976 0.6700 -0.2539
vn 0.5687 0.6700 -0.4772
vn -0.5774 -0.5773 -0.5774
vn 0.5774 -0.5773 -0.5774
vn -0.6233 0.7484 0.2269
vn -0.6633 0.7484 -0.0000
vn -0.6233 0.7484 -0.2269
vn -0.5081 0.7484 -0.4264
vn -0.5081 0.7484 0.4264
vn 0.6633 0.7484 -0.0000
vn 0.6233 0.7484 0.2269
vn 0.5081 0.7484 0.4264
vn 0.3316 0.7484 0.5744
vn 0.1152 0.7484 0.6532
vn -0.1152 0.7484 0.6532
vn -0.3316 0.7484 0.5744
vn -0.3316 0.7484 -0.5744
vn -0.1152 0.7484 -0.6532
vn 0.1152 0.7484 -0.6532
vn 0.3316 0.7484 -0.5744
vn 0.6233 0.7484 -0.2269
vn 0.5081 0.7484 -0.4264
s 1
f 1//1 2//2 3//2
f 3//2 2//2 4//3
f 3//2 4//3 5//4
f 5//4 4//3 6//5
f 5//4 6//5 7//6
f 7//6 6//5 8//7
f 7//6 8//7 9//8
f 9//8 8//7 10//9
f 9//8 10//9 11//10
f 11//10 10//9 12//11
f 11//10 12//11 13//12
f 13//12 12//11 14//13
f 13//12 14//13 15//14
f 15//14 14//13 16//15
f 15//14 16//15 17//16
f 17//16 16//15 18//17
f 17//16 18//17 19//18
f 19//18 18//17 20//19
f 19//18 20//19 21//20
f 21//20 20//19 22//21
f 21//20 22//21 23//22
f 23//22 22//21 24//23
f 23//22 24//23 25//24
f 25//24 24//23 26//25
f 25//24 26//25 27//26
f 27//26 26//25 28//27
f 27//26 28//27 29//28
f 29//28 28//27 30//29
f 29//28 30//29 31//30
f 31//30 30//29 32//31
f 31//30 32//31 33//32
f 33//32 32//31 34//33
f 33//32 34//33 35//34
f 35//34 34//33 36//35
f 35//34 36//35 37//36
f 37//36 36//35 38//37
f 37//36 38//37 39//38
f 39//38 38//37 40//39
f 39//38 40//39 41//40
f 41//40 40//39 42//41
f 41//40 42//41 43//42
f 43//42 42//41 44//43
f 43//42 44//43 45//44
f 45//44 44//43 46//45
f 45//44 46//45 47//46
f 47//46 46//45 48//47
f 47//46 48//47 49//48
f 49//48 48//47 50//49
f 49//48 50//49 51//50
f 51//50 50//49 52//51
f 51//50 52//51 53//52
f 53//52 52//51 54//53
f 53//52 54//53 55//54
f 55//54 54//53 56//55
f 55//54 56//55 57//56
f 57//56 56//55 58//57
f 57//56 58//57 1//1
f 1//1 58//57 2//2
f 56//55 16//15 14//13
f 14//13 12//11 56//55
f 56//55 12//11 10//9
f 56//55 10//9 58//57
f 10//9 8//7 6//5
f 56//55 54//53 16//15
f 16//15 54//53 52//51
f 16//15 52//51 50//49
f 20//19 46//45 44//43
f 26//25 24//23 40//39
f 6//5 4//3 10//9
f 10//9 4//3 59//58
f 10//9 59//58 58//57
f 20//19 18//17 46//45
f 46//45 18//17 16//15
f 46//45 16//15 48//47
f 48//47 16//15 50//49
f 36//35 34//33 28//27
f 28//27 34//33 32//31
f 28//27 32//31 30//29
f 44//43 42//41 20//19
f 20//19 42//41 40//39
f 20//19 40//39 22//21
f 22//21 40//39 24//23
f 26//25 40//39 28//27
f 28//27 40//39 38//37
f 28//27 38//37 36//35
f 60//59 61//60 62//61
f 63//62 64//63 65//64
f 66//65 67//66 65//64
f 65//64 67//66 60//59
f 65//64 60//59 63//62
f 63//62 60//59 62//61
f 68//67 69//68 70//69
f 69//68 71//70 72//71
f 72//71 73//72 69//68
f 69//68 73//72 74//73
f 69//68 74//73 70//69
f 69//68 75//74 71//70
f 71//70 75//74 76//75
f 71//70 76//75 77//73
f 78//76 79//77 80//78
f 70//69 81//79 82//80
f 82//80 83//81 70//69
f 70//69 83//81 84//82
f 70//69 84//82 68//67
f 77//73 85//83 71//70
f 71//70 85//83 86//84
f 71//70 86//84 80//78
f 80//78 86//84 87//85
f 80//78 87//85 78//76
f 64//63 63//62 88//86
f 89//87 90//88 91//89
f 90//88 92//90 91//89
f 91//89 92//90 93//91
f 91//89 93//91 88//86
f 88//86 93//91 94//92
f 88//86 94//92 64//63
f 95//93 91//89 96//94
f 95//93 97//95 91//89
f 91//89 97//95 98//96
f 91//89 98//96 99//97
f 96//94 100//98 95//93
f 95//93 100//98 101//99
f 95//93 101//99 102//100
f 102//100 101//99 103//101
f 104//102 91//89 105//103
f 105//103 91//89 106//104
f 104//102 107//105 91//89
f 91//89 107//105 108//106
f 91//89 108//106 89//87
f 99//97 109//107 91//89
f 91//89 109//107 110//108
f 91//89 110//108 106//104
f 65//64 64//63 94//92
f 65//64 94//92 111//109
f 111//109 94//92 93//91
f 111//109 93//91 112//110
f 112//110 93//91 92//90
f 112//110 92//90 113//111
f 113//111 92//90 90//88
f 113//111 90//88 114//112
f 65//64 111//109 66//65
f 66//65 111//109 112//110
f 66//65 112//110 113//111
f 115//113 116//114 113//111
f 113//111 116//114 117//73
f 113//111 117//73 66//65
f 66//65 117//73 118//115
f 66//65 118//115 119//116
f 119//116 120//117 66//65
f 66//65 120//117 121//118
f 66//65 121//118 122//119
f 123//83 124//84 125//120
f 126//121 127//122 128//123
f 128//123 127//122 129//124
f 128//123 129//124 130//125
f 130//125 129//124 131//126
f 130//125 131//126 132//127
f 113//111 114//112 115//113
f 115//113 114//112 133//128
f 115//113 133//128 134//129
f 134//129 133//128 135//130
f 134//129 135//130 126//121
f 126//121 135//130 136//131
f 126//121 136//131 127//122
f 121//118 137//132 122//119
f 122//119 137//132 138//133
f 122//119 138//133 139//76
f 139//76 138//133 125//120
f 139//76 125//120 140//85
f 140//85 125//120 124//84
f 132//127 131//126 141//134
f 141//134 131//126 142//135
f 141//134 142//135 143//136
f 143//136 142//135 144//137
f 143//136 144//137 145//73
f 145//73 144//137 146//138
f 145//73 146//138 147//139
f 147//139 146//138 148//140
f 147//139 148//140 149//141
f 149//141 148//140 150//142
f 149//141 150//142 125//120
f 125//120 150//142 151//143
f 125//120 151//143 123//83
f 151//143 95//93 102//100
f 151//143 102//100 123//83
f 123//83 102//100 103//101
f 123//83 103//101 124//84
f 124//84 103//101 101//99
f 124//84 101//99 140//85
f 140//85 101//99 100//98
f 140//85 100//98 139//76
f 139//76 100//98 96//94
f 139//76 96//94 122//119
f 89//87 133//128 90//88
f 90//88 133//128 114//112
f 133//128 89//87 108//106
f 133//128 108//106 135//130
f 135//130 108//106 107//105
f 135//130 107//105 136//131
f 136//131 107//105 104//102
f 136//131 104//102 127//122
f 127//122 104//102 105//103
f 127//122 105//103 129//124
f 129//124 105//103 106//104
f 129//124 106//104 131//126
f 131//126 106//104 110//108
f 131//126 110//108 142//135
f 142//135 110//108 109//107
f 142//135 109//107 144//137
f 144//137 109//107 99//97
f 144//137 99//97 146//138
f 146//138 99//97 98//96
f 146//138 98//96 148//140
f 148//140 98//96 97//95
f 148//140 97//95 150//142
f 95//93 151//143 97//95
f 97//95 151//143 150//142
f 121//118 79//77 137//132
f 137//132 79//77 78//76
f 137//132 78//76 138//133
f 138//133 78//76 87//85
f 138//133 87//85 125//120
f 125//120 87//85 86//84
f 125//120 86//84 149//141
f 149//141 86//84 85//83
f 149//141 85//83 147//139
f 147//139 85//83 152//144
f 147//139 152//144 153//144
f 153//144 152//144 76//75
f 153//144 76//75 143//136
f 143//136 76//75 75//74
f 143//136 75//74 141//134
f 141//134 75//74 69//68
f 141//134 69//68 132//127
f 132//127 69//68 68//67
f 132//127 68//67 130//125
f 130//125 68//67 84//82
f 130//125 84//82 128//123
f 128//123 84//82 83//81
f 128//123 83//81 126//121
f 126//121 83//81 82//80
f 126//121 82//80 134//129
f 134//129 82//80 81//79
f 134//129 81//79 115//113
f 115//113 81//79 70//69
f 115//113 70//69 116//114
f 116//114 70//69 154//58
f 116//114 154//58 155//58
f 155//58 154//58 73//72
f 155//58 73//72 118//115
f 118//115 73//72 72//71
f 118//115 72//71 119//116
f 119//116 72//71 71//70
f 119//116 71//70 120//117
f 120//117 71//70 80//78
f 120//117 80//78 121//118
f 121//118 80//78 79//77
f 156//145 157//146 158//147
f 158//147 157//146 159//148
f 158//147 159//148 160//149
f 161//150 162//151 163//152
f 163//152 164//153 165//154
f 156//145 166//155 157//146
f 157//146 166//155 167//156
f 157//146 167//156 168//157
f 169//158 170//159 171//160
f 171//160 170//159 157//146
f 171//160 157//146 172//161
f 172//161 157//146 168//157
f 160//149 161//150 158//147
f 158//147 161//150 163//152
f 158//147 163//152 173//162
f 173//162 163//152 165//154
f 174//163 175//111 176//112
f 62//61 61//60 177//164
f 177//164 61//60 178//109
f 177//164 178//109 174//163
f 174//163 178//109 179//110
f 174//163 179//110 175//111
f 180//84 181//85 182//76
f 176//112 183//128 174//163
f 174//163 183//128 184//130
f 174//163 184//130 185//131
f 185//131 186//122 174//163
f 174//163 186//122 187//124
f 174//163 187//124 188//126
f 188//126 189//135 174//163
f 174//163 189//135 190//137
f 174//163 190//137 191//138
f 191//138 192//140 174//163
f 174//163 192//140 193//142
f 174//163 193//142 194//119
f 194//119 193//142 195//143
f 194//119 195//143 182//76
f 182//76 195//143 196//83
f 182//76 196//83 180//84
f 61//60 60//59 197//92
f 61//60 197//92 178//109
f 178//109 197//92 198//91
f 178//109 198//91 179//110
f 179//110 198//91 199//90
f 179//110 199//90 175//111
f 175//111 199//90 200//88
f 175//111 200//88 176//112
f 201//165 202//166 203//94
f 199//90 198//91 67//66
f 67//66 198//91 197//92
f 67//66 197//92 60//59
f 203//94 202//166 67//66
f 67//66 202//166 204//167
f 67//66 204//167 205//168
f 201//165 203//94 206//169
f 206//169 203//94 207//98
f 206//169 207//98 208//99
f 209//170 210//171 211//104
f 211//104 210//171 212//108
f 210//171 213//172 212//108
f 212//108 213//172 214//173
f 212//108 214//173 215//107
f 215//107 214//173 216//174
f 215//107 216//174 217//97
f 217//97 216//174 218//175
f 217//97 218//175 219//96
f 219//96 218//175 220//176
f 219//96 220//176 221//95
f 221//95 220//176 206//169
f 221//95 206//169 222//93
f 208//99 223//101 206//169
f 206//169 223//101 224//100
f 206//169 224//100 222//93
f 205//168 225//177 67//66
f 67//66 225//177 226//178
f 67//66 226//178 199//90
f 199//90 226//178 227//179
f 199//90 227//179 228//180
f 211//104 229//103 209//170
f 209//170 229//103 230//102
f 209//170 230//102 231//181
f 231//181 230//102 232//105
f 231//181 232//105 233//182
f 232//105 234//106 233//182
f 233//182 234//106 235//87
f 233//182 235//87 228//180
f 228//180 235//87 200//88
f 228//180 200//88 199//90
f 183//128 235//87 234//106
f 183//128 234//106 184//130
f 184//130 234//106 232//105
f 184//130 232//105 185//131
f 185//131 232//105 230//102
f 185//131 230//102 186//122
f 186//122 230//102 229//103
f 186//122 229//103 187//124
f 187//124 229//103 211//104
f 187//124 211//104 188//126
f 188//126 211//104 212//108
f 188//126 212//108 189//135
f 189//135 212//108 215//107
f 189//135 215//107 190//137
f 190//137 215//107 217//97
f 190//137 217//97 191//138
f 191//138 217//97 219//96
f 191//138 219//96 192//140
f 192//140 219//96 221//95
f 192//140 221//95 193//142
f 235//87 183//128 200//88
f 200//88 183//128 176//112
f 195//143 222//93 224//100
f 195//143 224//100 196//83
f 196//83 224//100 223//101
f 196//83 223//101 180//84
f 180//84 223//101 208//99
f 180//84 208//99 181//85
f 181//85 208//99 207//98
f 181//85 207//98 182//76
f 182//76 207//98 203//94
f 182//76 203//94 194//119
f 193//142 221//95 195//143
f 195//143 221//95 222//93
f 231//181 164//153 209//170
f 209//170 164//153 163//152
f 209//170 163//152 210//171
f 210//171 163//152 162//151
f 210//171 162//151 213//172
f 213//172 162//151 161//150
f 213//172 161//150 214//173
f 214//173 161//150 160//149
f 214//173 160//149 216//174
f 216//174 160//149 159//148
f 216//174 159//148 218//175
f 218//175 159//148 157//146
f 218//175 157//146 220//176
f 220//176 157//146 170//159
f 220//176 170//159 206//169
f 206//169 170//159 169//158
f 206//169 169//158 201//165
f 201//165 169//158 171//160
f 201//165 171//160 202//166
f 202//166 171//160 172//161
f 202//166 172//161 204//167
f 204//167 172//161 168//157
f 204//167 168//157 205//168
f 205//168 168//157 167//156
f 205//168 167//156 225//177
f 225//177 167//156 166//155
f 225//177 166//155 226//178
f 226//178 166//155 156//145
f 226//178 156//145 227//179
f 227//179 156//145 158//147
f 227//179 158//147 228//180
f 228//180 158//147 173//162
f 228//180 173//162 233//182
f 233//182 173//162 165//154
f 233//182 165//154 231//181
f 231//181 165//154 164//153
f 23//22 91//89 21//20
f 21//20 91//89 19//18
f 23//22 25//24 91//89
f 91//89 25//24 27//26
f 91//89 27//26 29//28
f 29//28 31//30 91//89
f 91//89 31//30 33//32
f 91//89 33//32 174//163
f 174//163 45//44 177//164
f 177//164 45//44 47//46
f 177//164 47//46 49//48
f 33//32 35//34 174//163
f 174//163 35//34 37//36
f 174//163 37//36 39//38
f 88//86 177//164 236//58
f 236//58 5//4 88//86
f 88//86 5//4 7//6
f 88//86 7//6 9//8
f 19//18 91//89 17//16
f 17//16 91//89 88//86
f 17//16 88//86 15//14
f 49//48 51//50 177//164
f 177//164 51//50 53//52
f 177//164 53//52 55//54
f 9//8 11//10 88//86
f 88//86 11//10 13//12
f 88//86 13//12 15//14
f 39//38 41//40 174//163
f 174//163 41//40 43//42
f 174//163 43//42 45//44
f 55//54 57//56 177//164
f 177//164 57//56 1//1
f 177//164 1//1 236//58
f 177//164 88//86 62//61
f 62//61 88//86 63//62
f 122//119 96//94 66//65
f 66//65 96//94 91//89
f 66//65 91//89 67//66
f 67//66 91//89 174//163
f 67//66 174//163 203//94
f 203//94 174//163 194//119
