<svg version="1.1" viewBox="0.0 0.0 960.0 192.0" fill="none" stroke="none" stroke-linecap="square" stroke-miterlimit="10" xmlns:xlink="http://www.w3.org/1999/xlink" xmlns="http://www.w3.org/2000/svg"><clipPath id="g3497bf555b9_0_0.0"><path d="m0 0l960.0 0l0 192.0l-960.0 0l0 -192.0z" clip-rule="nonzero" data-index="0"></path></clipPath><g clip-path="url(#g3497bf555b9_0_0.0)"><path fill="#000000" fill-opacity="0.0" d="m0 0l960.0 0l0 192.0l-960.0 0z" fill-rule="evenodd" data-index="1"></path><path fill="#ffffff" fill-opacity="0.0" d="m0 0.010510236l960.0 0l0 192.0l-960.0 0z" fill-rule="evenodd" data-index="2"></path><path fill="#ffffff" d="m37.572174 148.08363l-4.875 -10.125q3.953125 0 6.34375 -1.109375q2.390625 -1.09375 3.453125 -3.625q1.0625 -2.53125 1.0625 -6.671875l0 -46.09375l13.0625 0l0 49.21875q0 5.984375 -2.265625 10.078125q-2.25 4.09375 -6.484375 6.203125q-4.21875 2.125 -10.296875 2.125zm12.78125 -77.5625q-3.765625 0 -5.890625 -1.875q-2.109375 -1.890625 -2.109375 -5.296879q0 -3.125 2.15625 -5.09375q2.171875 -1.984375 5.84375 -1.984375q3.78125 0 5.890625 1.890625q2.125 1.875 2.125 5.1875q0 3.1250038 -2.171875 5.156254q-2.15625 2.015625 -5.84375 2.015625zm37.820496 59.53125q-6.078125 0 -10.953125 -3.3125q-4.875 -3.3125 -7.734375 -9.015625q-2.84375 -5.703125 -2.84375 -13.0625q0 -7.359375 2.890625 -13.0625q2.90625 -5.703125 7.875 -8.921875q4.96875 -3.234375 11.3125 -3.234375q3.59375 0 6.578125 1.0625q3.0 1.0625 5.25 2.90625q2.25 1.828125 3.8125 4.234375q1.5625 2.390625 2.203125 5.140625l-2.75 -0.453125l0 -11.875l12.96875 0l0 48.671875l-13.15625 0l0 -11.6875l2.9375 -0.265625q-0.734375 2.5625 -2.390625 4.875q-1.65625 2.296875 -4.09375 4.09375q-2.4375 1.78125 -5.46875 2.84375q-3.03125 1.0625 -6.4375 1.0625zm3.59375 -11.3125q3.671875 0 6.421875 -1.75q2.765625 -1.75 4.28125 -4.921875q1.53125 -3.171875 1.53125 -7.40625q0 -4.140625 -1.53125 -7.265625q-1.515625 -3.140625 -4.28125 -4.921875q-2.75 -1.796875 -6.421875 -1.796875q-3.59375 0 -6.3125 1.796875q-2.71875 1.78125 -4.28125 4.921875q-1.5625 3.125 -1.5625 7.265625q0 4.234375 1.5625 7.40625q1.5625 3.171875 4.28125 4.921875q2.71875 1.75 6.3125 1.75zm59.23575 11.3125q-6.984375 0 -12.515625 -3.3125q-5.515625 -3.3125 -8.6875 -9.015625q-3.171875 -5.703125 -3.171875 -12.96875q0 -7.265625 3.171875 -12.96875q3.171875 -5.71875 8.6875 -9.03125q5.53125 -3.3125 12.515625 -3.3125q6.53125 0 11.953125 2.40625q5.4375 2.390625 8.46875 6.625l-7.171875 8.640625q-1.28125 -1.75 -3.21875 -3.171875q-1.9375 -1.421875 -4.1875 -2.25q-2.25 -0.828125 -4.640625 -0.828125q-3.78125 0 -6.6875 1.796875q-2.890625 1.78125 -4.546875 4.921875q-1.640625 3.125 -1.640625 7.171875q0 3.859375 1.6875 6.984375q1.703125 3.125 4.640625 4.96875q2.953125 1.84375 6.640625 1.84375q2.390625 0 4.5 -0.640625q2.125 -0.65625 4.0 -2.03125q1.890625 -1.375 3.453125 -3.3125l7.09375 8.65625q-3.046875 3.953125 -8.609375 6.390625q-5.5625 2.4375 -11.734375 2.4375zm33.39525 -0.921875l0 -61.0l13.0625 0l0 61.0l-13.0625 0zm-9.109375 -36.984375l0 -11.6875l32.203125 0l0 11.6875l-32.203125 0zm58.42862 37.90625q-6.078125 0 -10.953125 -3.3125q-4.875 -3.3125 -7.734375 -9.015625q-2.84375 -5.703125 -2.84375 -13.0625q0 -7.359375 2.890625 -13.0625q2.90625 -5.703125 7.875 -8.921875q4.96875 -3.234375 11.3125 -3.234375q3.59375 0 6.578125 1.0625q3.0 1.0625 5.25 2.90625q2.25 1.828125 3.8125 4.234375q1.5625 2.390625 2.203125 5.140625l-2.75 -0.453125l0 -11.875l12.968735 0l0 48.671875l-13.156235 0l0 -11.6875l2.9375 -0.265625q-0.734375 2.5625 -2.390625 4.875q-1.65625 2.296875 -4.09375 4.09375q-2.4375 1.78125 -5.46875 2.84375q-3.03125 1.0625 -6.4375 1.0625zm3.59375 -11.3125q3.671875 0 6.421875 -1.75q2.765625 -1.75 4.28125 -4.921875q1.53125 -3.171875 1.53125 -7.40625q0 -4.140625 -1.53125 -7.265625q-1.515625 -3.140625 -4.28125 -4.921875q-2.75 -1.796875 -6.421875 -1.796875q-3.59375 0 -6.3125 1.796875q-2.71875 1.78125 -4.28125 4.921875q-1.5625 3.125 -1.5625 7.265625q0 4.234375 1.5625 7.40625q1.5625 3.171875 4.28125 4.921875q2.71875 1.75 6.3125 1.75zm36.329514 -9.9375l0 -12.140625l30.09375 0l0 12.140625l-30.09375 0zm41.308258 20.328125l0 -48.671875l12.609375 0l0.265625 9.296875l-1.921875 0.359375q1.015625 -2.390625 2.703125 -4.3125q1.703125 -1.9375 3.90625 -3.3125q2.21875 -1.390625 4.703125 -2.171875q2.484375 -0.78125 4.96875 -0.78125q3.765625 0 6.796875 1.203125q3.046875 1.1875 5.15625 3.71875q2.125 2.53125 3.3125 6.671875l-2.015625 -0.1875l0.640625 -1.46875q1.203125 -2.203125 3.03125 -4.046875q1.84375 -1.84375 4.140625 -3.125q2.3125 -1.28125 4.796875 -2.015625q2.484375 -0.75 4.875 -0.75q5.703125 0 9.46875 2.265625q3.765625 2.25 5.65625 6.765625q1.890625 4.5 1.890625 11.03125l0 29.53125l-13.0625 0l0 -28.609375q0 -3.3125 -0.921875 -5.421875q-0.921875 -2.125 -2.671875 -3.171875q-1.75 -1.0625 -4.5 -1.0625q-2.125 0 -3.921875 0.6875q-1.78125 0.6875 -3.125 1.9375q-1.328125 1.234375 -2.0625 2.9375q-0.734375 1.703125 -0.734375 3.625l0 29.078125l-13.15625 0l0 -28.703125q0 -3.03125 -0.921875 -5.1875q-0.921875 -2.171875 -2.671875 -3.265625q-1.75 -1.109375 -4.328125 -1.109375q-2.109375 0 -3.90625 0.6875q-1.796875 0.6875 -3.09375 1.9375q-1.28125 1.234375 -2.015625 2.890625q-0.734375 1.65625 -0.734375 3.59375l0 29.15625l-13.15625 0zm105.620514 0.921875q-6.078125 0 -10.953125 -3.3125q-4.875 -3.3125 -7.734375 -9.015625q-2.84375 -5.703125 -2.84375 -13.0625q0 -7.359375 2.890625 -13.0625q2.90625 -5.703125 7.875 -8.921875q4.96875 -3.234375 11.3125 -3.234375q3.59375 0 6.578125 1.0625q3.0 1.0625 5.25 2.90625q2.25 1.828125 3.8125 4.234375q1.5625 2.390625 2.203125 5.140625l-2.75 -0.453125l0 -11.875l12.96875 0l0 48.671875l-13.15625 0l0 -11.6875l2.9375 -0.265625q-0.734375 2.5625 -2.390625 4.875q-1.65625 2.296875 -4.09375 4.09375q-2.4375 1.78125 -5.46875 2.84375q-3.03125 1.0625 -6.4375 1.0625zm3.59375 -11.3125q3.671875 0 6.421875 -1.75q2.765625 -1.75 4.28125 -4.921875q1.53125 -3.171875 1.53125 -7.40625q0 -4.140625 -1.53125 -7.265625q-1.515625 -3.140625 -4.28125 -4.921875q-2.75 -1.796875 -6.421875 -1.796875q-3.59375 0 -6.3125 1.796875q-2.71875 1.78125 -4.28125 4.921875q-1.5625 3.125 -1.5625 7.265625q0 4.234375 1.5625 7.40625q1.5625 3.171875 4.28125 4.921875q2.71875 1.75 6.3125 1.75zm38.0795 10.390625l0 -48.671875l12.515625 0l0.359375 9.9375l-2.5625 1.109375q1.0 -3.3125 3.625 -6.03125q2.625 -2.71875 6.296875 -4.375q3.6875 -1.65625 7.734375 -1.65625q5.515625 0 9.234375 2.21875q3.734375 2.203125 5.625 6.671875q1.890625 4.453125 1.890625 10.984375l0 29.8125l-13.0625 0l0 -28.796875q0 -3.3125 -0.921875 -5.515625q-0.921875 -2.21875 -2.8125 -3.21875q-1.890625 -1.015625 -4.640625 -0.921875q-2.21875 0 -4.109375 0.6875q-1.875 0.6875 -3.21875 1.984375q-1.328125 1.28125 -2.109375 2.9375q-0.78125 1.65625 -0.78125 3.59375l0 29.25l-6.4375 0q-2.109375 0 -3.765625 0q-1.65625 0 -2.859375 0zm58.333344 0l0 -48.671875l13.0625 0l0 48.671875l-13.0625 0zm6.4375 -58.609375q-3.78125 0 -5.890625 -1.875q-2.109375 -1.890625 -2.109375 -5.296879q0 -3.125 2.15625 -5.09375q2.15625 -1.984375 5.84375 -1.984375q3.765625 0 5.875 1.890625q2.125 1.875 2.125 5.1875q0 3.1250038 -2.171875 5.156254q-2.15625 2.015625 -5.828125 2.015625zm20.605164 78.84375l0 -68.90625l12.609375 0l0.359375 10.953125l-2.390625 -0.828125q0.640625 -2.9375 3.171875 -5.421875q2.53125 -2.484375 6.296875 -4.046875q3.78125 -1.578125 7.921875 -1.578125q6.34375 0 11.3125 3.265625q4.96875 3.265625 7.8125 8.9375q2.859375 5.65625 2.859375 13.015625q0 7.265625 -2.859375 12.96875q-2.84375 5.703125 -7.8125 8.96875q-4.96875 3.265625 -11.3125 3.265625q-4.234375 0 -8.0625 -1.609375q-3.8125 -1.609375 -6.4375 -4.28125q-2.609375 -2.671875 -3.34375 -5.703125l3.03125 -1.28125l0 32.28125l-13.15625 0zm25.03125 -30.625q3.578125 0 6.328125 -1.75q2.765625 -1.75 4.328125 -4.921875q1.578125 -3.171875 1.578125 -7.3125q0 -4.140625 -1.578125 -7.265625q-1.5625 -3.140625 -4.28125 -4.875q-2.703125 -1.75 -6.375 -1.75q-3.6875 0 -6.453125 1.703125q-2.75 1.6875 -4.3125 4.875q-1.5625 3.171875 -1.5625 7.3125q0 4.140625 1.5625 7.3125q1.5625 3.171875 4.3125 4.921875q2.765625 1.75 6.453125 1.75zm51.518738 11.3125q-5.34375 0 -9.171875 -2.34375q-3.8125 -2.34375 -5.890625 -6.71875q-2.0625 -4.375 -2.0625 -10.53125l0 -30.0l13.078125 0l0 27.875q0 3.3125 1.09375 5.75q1.109375 2.4375 3.125 3.734375q2.03125 1.28125 4.96875 1.28125q2.125 0 3.90625 -0.6875q1.796875 -0.6875 3.125 -1.96875q1.34375 -1.296875 2.078125 -3.046875q0.734375 -1.75 0.734375 -3.765625l0 -29.171875l13.078125 0l0 48.671875l-12.421875 0l-0.46875 -10.03125l2.390625 -1.09375q-1.09375 3.390625 -3.671875 6.15625q-2.578125 2.765625 -6.171875 4.328125q-3.578125 1.5625 -7.71875 1.5625zm41.303833 -0.921875l0 -68.078125l13.0625 0l0 68.078125l-13.0625 0zm43.60901 0.921875q-6.078125 0 -10.953125 -3.3125q-4.875 -3.3125 -7.734375 -9.015625q-2.84375 -5.703125 -2.84375 -13.0625q0 -7.359375 2.890625 -13.0625q2.90625 -5.703125 7.875 -8.921875q4.96875 -3.234375 11.3125 -3.234375q3.59375 0 6.578125 1.0625q3.0 1.0625 5.25 2.90625q2.25 1.828125 3.8125 4.234375q1.5625 2.390625 2.203125 5.140625l-2.75 -0.453125l0 -11.875l12.96875 0l0 48.671875l-13.15625 0l0 -11.6875l2.9375 -0.265625q-0.734375 2.5625 -2.390625 4.875q-1.65625 2.296875 -4.09375 4.09375q-2.4375 1.78125 -5.46875 2.84375q-3.03125 1.0625 -6.4375 1.0625zm3.59375 -11.3125q3.671875 0 6.421875 -1.75q2.765625 -1.75 4.28125 -4.921875q1.53125 -3.171875 1.53125 -7.40625q0 -4.140625 -1.53125 -7.265625q-1.515625 -3.140625 -4.28125 -4.921875q-2.75 -1.796875 -6.421875 -1.796875q-3.59375 0 -6.3125 1.796875q-2.71875 1.78125 -4.28125 4.921875q-1.5625 3.125 -1.5625 7.265625q0 4.234375 1.5625 7.40625q1.5625 3.171875 4.28125 4.921875q2.71875 1.75 6.3125 1.75zm42.766968 10.390625l0 -61.0l13.0625 0l0 61.0l-13.0625 0zm-9.109375 -36.984375l0 -11.6875l32.203125 0l0 11.6875l-32.203125 0zm41.779297 36.984375l0 -48.671875l13.0625 0l0 48.671875l-13.0625 0zm6.4375 -58.609375q-3.78125 0 -5.890625 -1.875q-2.109375 -1.890625 -2.109375 -5.296879q0 -3.125 2.15625 -5.09375q2.15625 -1.984375 5.84375 -1.984375q3.765625 0 5.875 1.890625q2.125 1.875 2.125 5.1875q0 3.1250038 -2.171875 5.156254q-2.15625 2.015625 -5.828125 2.015625zm43.230103 59.53125q-7.4375 0 -13.28125 -3.265625q-5.84375 -3.265625 -9.203125 -8.96875q-3.359375 -5.703125 -3.359375 -13.0625q0 -7.359375 3.359375 -13.0625q3.359375 -5.703125 9.203125 -8.96875q5.84375 -3.28125 13.28125 -3.28125q7.375 0 13.203125 3.28125q5.84375 3.265625 9.15625 8.96875q3.3125 5.703125 3.3125 13.0625q0 7.359375 -3.3125 13.0625q-3.3125 5.703125 -9.15625 8.96875q-5.828125 3.265625 -13.203125 3.265625zm0 -11.40625q3.59375 0 6.4375 -1.796875q2.859375 -1.796875 4.46875 -4.96875q1.609375 -3.171875 1.515625 -7.125q0.09375 -4.046875 -1.515625 -7.21875q-1.609375 -3.1875 -4.46875 -4.96875q-2.84375 -1.796875 -6.4375 -1.796875q-3.671875 0 -6.53125 1.84375q-2.84375 1.828125 -4.5 4.96875q-1.65625 3.125 -1.5625 7.171875q-0.09375 3.953125 1.5625 7.125q1.65625 3.171875 4.5 4.96875q2.859375 1.796875 6.53125 1.796875zm35.611084 10.484375l0 -48.671875l12.515625 0l0.359375 9.9375l-2.5625 1.109375q1.0 -3.3125 3.625 -6.03125q2.625 -2.71875 6.296875 -4.375q3.6875 -1.65625 7.734375 -1.65625q5.515625 0 9.234375 2.21875q3.734375 2.203125 5.625 6.671875q1.890625 4.453125 1.890625 10.984375l0 29.8125l-13.0625 0l0 -28.796875q0 -3.3125 -0.921875 -5.515625q-0.921875 -2.21875 -2.8125 -3.21875q-1.890625 -1.015625 -4.640625 -0.921875q-2.21875 0 -4.109375 0.6875q-1.875 0.6875 -3.21875 1.984375q-1.328125 1.28125 -2.109375 2.9375q-0.78125 1.65625 -0.78125 3.59375l0 29.25l-6.4375 0q-2.109375 0 -3.765625 0q-1.65625 0 -2.859375 0z" fill-rule="nonzero" data-index="3"></path></g></svg>
