<svg version="1.1" viewBox="0.0 0.0 672.0 288.0" fill="none" stroke="none" stroke-linecap="square" stroke-miterlimit="10" xmlns:xlink="http://www.w3.org/1999/xlink" xmlns="http://www.w3.org/2000/svg"><clipPath id="g35c78e9d335_0_4.0"><path d="m0 0l672.0 0l0 288.0l-672.0 0l0 -288.0z" clip-rule="nonzero"/></clipPath><g clip-path="url(#g35c78e9d335_0_4.0)"><path fill="#000000" fill-opacity="0.0" d="m0 0l672.0 0l0 288.0l-672.0 0z" fill-rule="evenodd"/><path fill="#000000" fill-opacity="0.0" d="m7.874016E-7 2.0498688E-4l672.0 0l0 288.0l-672.0 0z" fill-rule="evenodd"/><path fill="#000000" d="m99.47266 264.0471q-5.078125 0 -9.65625 -0.734375q-4.59375 -0.734375 -7.71875 -1.703125l0 -18.35939q3.3125 0.96875 6.4375 1.453125q3.125 0.5 7.140625 0.5q6.34375 0 10.484375 -3.515625q4.15625 -3.515625 4.15625 -13.375l0 -120.42187l22.953125 0l0 122.46874q0 9.859375 -3.46875 17.46875q-3.46875 7.625 -10.9375 11.92189q-7.46875 4.296875 -19.390625 4.296875zm9.484375 -184.96875q0 -6.921875 3.75 -9.75q3.765625 -2.84375 9.234375 -2.84375q5.265625 0 9.125 2.84375q3.859375 2.828125 3.859375 9.75q0 6.84375 -3.859375 9.734375q-3.859375 2.875 -9.125 2.875q-5.46875 0 -9.234375 -2.875q-3.75 -2.890625 -3.75 -9.734375zm151.35547 28.8125l0 108.10937l-18.0625 0l-3.125 -14.546875l-1.265625 0q-3.421875 5.5625 -8.703125 9.234375q-5.265625 3.65625 -11.71875 5.453125q-6.4375 1.8125 -13.5625 1.8125q-12.203125 0 -20.859375 -4.140625q-8.640625 -4.15625 -13.234375 -12.84375q-4.578125 -8.703125 -4.578125 -22.46875l0 -70.60937l23.046875 0l0 66.31249q0 12.59375 5.125 18.84375q5.125 6.25 15.96875 6.25q10.453125 0 16.59375 -4.296875q6.15625 -4.296875 8.734375 -12.6875q2.59375 -8.40625 2.59375 -20.609375l0 -53.812492l23.046875 0zm69.14453 110.06249q-19.328125 0 -31.0 -14.109375q-11.671875 -14.109375 -11.671875 -41.65625q0 -27.828125 11.859375 -42.078117q11.875 -14.265625 31.296875 -14.265625q8.203125 0 14.359375 2.203125q6.15625 2.1875 10.59375 5.90625q4.453125 3.703125 7.578125 8.296875l1.0625 0q-0.484375 -3.03125 -1.125 -8.734375q-0.625 -5.71875 -0.625 -10.609375l0 -38.859375l23.046875 0l0 151.95312l-17.96875 0l-4.109375 -14.75l-0.96875 0q-2.9375 4.6875 -7.375 8.453125q-4.4375 3.75 -10.546875 6.0q-6.109375 2.25 -14.40625 2.25zm6.453125 -18.65625q14.734375 0 20.78125 -8.484375q6.0625 -8.5 6.265625 -25.5l0 -3.03125q0 -18.15625 -5.859375 -27.875q-5.859375 -9.718742 -21.390625 -9.718742q-12.40625 0 -18.90625 10.015617q-6.484375 10.0 -6.484375 27.875q0 17.875 6.484375 27.296875q6.5 9.421875 19.109375 9.421875zm177.4336 -37.59375q0 13.46875 -3.515625 23.921875q-3.515625 10.453125 -10.25 17.640625q-6.734375 7.171875 -16.21875 10.9375q-9.46875 3.75 -21.375 3.75q-11.140625 0 -20.421875 -3.75q-9.265625 -3.765625 -16.0625 -10.9375q-6.78125 -7.1875 -10.5 -17.640625q-3.703125 -10.453125 -3.703125 -23.921875q0 -17.875 6.203125 -30.328125q6.203125 -12.453117 17.71875 -18.984367q11.53125 -6.546875 27.4375 -6.546875q14.953125 0 26.375 6.546875q11.421875 6.53125 17.859375 19.031242q6.453125 12.5 6.453125 30.28125zm-78.421875 0q0 11.8125 2.875 20.21875q2.890625 8.390625 8.9375 12.84375q6.0625 4.4375 15.640625 4.4375q9.5625 0 15.609375 -4.4375q6.0625 -4.453125 8.890625 -12.84375q2.84375 -8.40625 2.84375 -20.21875q0 -11.8125 -2.84375 -20.0625q-2.828125 -8.265625 -8.890625 -12.609375q-6.046875 -4.3437424 -15.71875 -4.3437424q-14.25 0 -20.796875 9.578117q-6.546875 9.5625 -6.546875 27.4375zm101.47656 42.1875q0 -8.015625 4.140625 -11.28125q4.15625 -3.265625 10.109375 -3.265625q5.953125 0 10.203125 3.265625q4.25 3.265625 4.25 11.28125q0 7.8125 -4.25 11.28125q-4.25 3.46875 -10.203125 3.46875q-5.953125 0 -10.109375 -3.46875q-4.140625 -3.46875 -4.140625 -11.28125z" fill-rule="nonzero"/></g></svg>